PathFileType	4	(X/Y/Z)	Kaydara	
DataRate	CameraRate	NumFrames	NumMarkers	Units	OrigDataRate	OrigDataStartFrame	OrigNumFrames	
240.00	240.00	4	72	mm	240.00	89	355	
Frame#	Time	Hips			RightUpLeg			RightLeg			RightFoot			RightFoot_End			LeftUpLeg			LeftLeg			LeftFoot			LeftFoot_End			Spine			Spine1			Spine2			Spine3			Neck			Head			Head_End			RightShoulder			RightArm			RightForeArm			RightHand			RightHandThumb1			RightHandThumb2			RightHandThumb3			RightHandThumb3_End			RightInHandIndex			RightHandIndex1			RightHandIndex2			RightHandIndex3			RightHandIndex3_End			RightInHandMiddle			RightHandMiddle1			RightHandMiddle2			RightHandMiddle3			RightHandMiddle3_End			RightInHandRing			RightHandRing1			RightHandRing2			RightHandRing3			RightHandRing3_End			RightInHandPinky			RightHandPinky1			RightHandPinky2			RightHandPinky3			RightHandPinky3_End			LeftShoulder			LeftArm			LeftForeArm			LeftHand			LeftHandThumb1			LeftHandThumb2			LeftHandThumb3			LeftHandThumb3_End			LeftInHandIndex			LeftHandIndex1			LeftHandIndex2			LeftHandIndex3			LeftHandIndex3_End			LeftInHandMiddle			LeftHandMiddle1			LeftHandMiddle2			LeftHandMiddle3			LeftHandMiddle3_End			LeftInHandRing			LeftHandRing1			LeftHandRing2			LeftHandRing3			LeftHandRing3_End			LeftInHandPinky			LeftHandPinky1			LeftHandPinky2			LeftHandPinky3			LeftHandPinky3_End			
		X1	Y1	Z1	X2	Y2	Z2	X3	Y3	Z3	X4	Y4	Z4	X5	Y5	Z5	X6	Y6	Z6	X7	Y7	Z7	X8	Y8	Z8	X9	Y9	Z9	X10	Y10	Z10	X11	Y11	Z11	X12	Y12	Z12	X13	Y13	Z13	X14	Y14	Z14	X15	Y15	Z15	X16	Y16	Z16	X17	Y17	Z17	X18	Y18	Z18	X19	Y19	Z19	X20	Y20	Z20	X21	Y21	Z21	X22	Y22	Z22	X23	Y23	Z23	X24	Y24	Z24	X25	Y25	Z25	X26	Y26	Z26	X27	Y27	Z27	X28	Y28	Z28	X29	Y29	Z29	X30	Y30	Z30	X31	Y31	Z31	X32	Y32	Z32	X33	Y33	Z33	X34	Y34	Z34	X35	Y35	Z35	X36	Y36	Z36	X37	Y37	Z37	X38	Y38	Z38	X39	Y39	Z39	X40	Y40	Z40	X41	Y41	Z41	X42	Y42	Z42	X43	Y43	Z43	X44	Y44	Z44	X45	Y45	Z45	X46	Y46	Z46	X47	Y47	Z47	X48	Y48	Z48	X49	Y49	Z49	X50	Y50	Z50	X51	Y51	Z51	X52	Y52	Z52	X53	Y53	Z53	X54	Y54	Z54	X55	Y55	Z55	X56	Y56	Z56	X57	Y57	Z57	X58	Y58	Z58	X59	Y59	Z59	X60	Y60	Z60	X61	Y61	Z61	X62	Y62	Z62	X63	Y63	Z63	X64	Y64	Z64	X65	Y65	Z65	X66	Y66	Z66	X67	Y67	Z67	X68	Y68	Z68	X69	Y69	Z69	X70	Y70	Z70	X71	Y71	Z71	X72	Y72	Z72	

89	0.367	3921.0129	906.651	56.2195	3998.030911974625	891.1217707735954	1.8724330898761106	3917.5158814788483	489.9824633363305	-87.21956699997983	3905.306974376254	106.41635113215294	-161.61106458728594	3830.3828631803212	30.785019724438314	-2.8570244301095395	3852.895926815158	893.7322466440413	122.16617305059444	3788.870184691698	490.4704187843588	216.1218139434061	3746.714204249314	59.00100768329654	296.5317197328173	3613.6420443053803	-15.621154588589166	181.12752652564143	3878.802606656656	1033.6369409002066	5.6823515842288765	3829.871216419418	1100.0872841936869	-45.08309159041045	3774.1642518389863	1163.3537231755863	-100.49803471528362	3714.6551639143386	1214.474155670887	-157.63535654467083	3650.6135975132183	1269.299159597405	-218.01501687946086	3591.011362759136	1319.0241557196814	-272.1323070962276	3472.7078919760806	1413.0715480375327	-323.6524610351388	3694.4355905586103	1252.7251593314534	-219.67435171836644	3755.020214690483	1244.3864076667699	-331.67250526907276	3763.4330613780303	974.0999049448575	-325.4249836008	3812.0589815613944	757.6330343341251	-396.14533301523255	3815.4217733817545	744.2462413641632	-409.6154517137489	3804.1123057018312	734.4945357520536	-422.1334188912691	3796.7540522318072	726.0056774811401	-429.70774641306025	3791.062634862416	717.4764853090514	-435.04416518177777	3819.3374457008763	735.704906665067	-406.68639714315077	3824.794898709409	701.2097275680488	-418.8458916452804	3819.2371222645224	683.7589067633032	-427.6650437586109	3809.8013733169755	680.5671626783184	-433.331752747612	3797.9573884893584	683.0905297488029	-438.14609037911663	3820.110750711231	732.5994173024948	-403.1708747797282	3825.8547393878953	697.2722283133651	-413.129228615655	3819.862747349557	677.9402238524867	-422.2498196141543	3808.513707347808	673.9505139837378	-428.8451829265994	3795.571177512583	676.643973401137	-433.9956321540551	3820.6172923100416	731.2011358802735	-400.36818478347584	3826.4957824479143	698.0798374231947	-406.8345189521766	3821.3372440410276	680.9905118742575	-414.2544879743153	3810.4242212699996	677.014963455184	-420.33500767021263	3798.271099530231	679.4872452041255	-425.04445657059057	3820.2594397355765	731.2546896862449	-396.85405098604866	3825.7660631536846	700.6143135741173	-400.59328131022204	3821.708930904874	686.7012625285856	-405.6805869903712	3813.7845458669076	683.6909259261743	-409.70247817085857	3803.0393552365595	685.8173392184418	-413.63644198474987	3648.662537857469	1250.0443773079198	-174.7367324330124	3584.143216054164	1189.7486476202898	-79.56603260947186	3692.286027270187	1004.1070818618831	-205.7988168576622	3837.162878359197	828.7114638499281	-327.16351211878816	3822.5154318262703	821.8797016953422	-348.69912934002195	3817.2943032369917	803.244237995412	-382.3108686320044	3813.9815793591665	788.1883453317978	-405.49572383881826	3811.4964564746033	773.8590951511419	-424.63371271023016	3821.2125635158186	814.1420325687927	-348.95353845879384	3802.876442757108	782.7001702090329	-385.43421612579107	3796.087270215461	759.0102508566027	-415.75863706808525	3796.303399910229	747.421626902739	-434.67186044179886	3799.4751573093326	739.9473453353766	-450.3671683258628	3823.0138275546433	809.498143662791	-347.31369823559385	3806.1019238388985	776.3193324976153	-382.0074540144398	3798.998191640171	749.9558932731517	-414.7688923896566	3799.405130365984	735.7284715403177	-437.42934266933696	3802.946675708691	727.430580797077	-454.526209254413	3824.692161174387	807.0181169806089	-345.17989165222133	3810.8107607165325	775.1261337464246	-374.29043055651886	3804.9578000043934	751.6756034336886	-402.45543815305115	3805.5301899777783	737.7014450412746	-424.1061392901768	3808.945377728581	729.7805482094142	-440.08335584942967	3827.6474604464297	805.082217661621	-342.01288860558117	3816.522936457465	774.6225290084324	-366.62349106909426	3812.425476875884	755.2468381080489	-388.4419443319892	3813.128079908151	744.7650577957573	-403.8784933888366	3816.3174594259367	737.5821270777785	-417.82707751702225
90	0.371	3921.0129	906.651	56.2195	3997.8455810841638	891.0551547866808	1.844569799161954	3917.3333905481572	489.8800044528004	-87.0578055112226	3905.4563769430415	106.40463626179749	-161.61250737830852	3830.536804008488	30.756214284077718	-2.8650041463944245	3853.0687617762387	893.7940319654773	122.19088654707144	3789.0783806334643	490.5445242118296	216.21106978987845	3746.845177726247	59.08035927852071	296.5266971846819	3613.82327754597	-15.599661289358002	181.11015912961807	3878.8632567463997	1033.6609921971603	5.698168606510023	3829.9981847674303	1100.2065930081644	-45.01311177722946	3774.3325680333082	1163.5548026790996	-100.37857439225081	3714.828993742343	1214.7272270073388	-157.4698384343433	3650.7939169838255	1269.6070457875358	-217.80012756284546	3591.201115750445	1319.3836693958247	-271.8724535363448	3472.9113040322054	1413.453374199085	-323.36923247871687	3694.5728760568923	1253.0034514386211	-219.46105215549946	3755.066074417811	1244.7537206787645	-331.3939566769646	3763.5015042067607	974.7194793363252	-325.254156722371	3811.612562201694	758.7967732173352	-395.9014737706493	3815.02422964873	745.504253846117	-409.4075331080335	3803.6788510775123	735.7191980025806	-421.95248238875183	3796.2767656113974	727.2057122395798	-429.54181042648355	3790.5327046720145	718.6547899776041	-434.8874926628951	3818.8797330331754	736.9808441489777	-406.4684051198563	3824.2378786818354	702.589990751981	-418.6524504541508	3818.5959116738672	685.1353753545011	-427.48754506045213	3809.1225821804514	681.8923857601518	-433.16472046113114	3797.2574484600095	684.3403617313669	-437.98809537510334	3819.6045812468938	733.8642789177784	-402.941667005965	3825.2255020241323	698.6328766115789	-412.9179006878057	3819.135551016595	679.2948362891356	-422.05432719390865	3807.7382489067777	675.2423908511859	-428.66156849934566	3794.7711574404498	677.8529166590147	-433.82154215606386	3820.079432279	732.4562974178193	-400.13041813085823	3825.8201498599856	699.4147257108278	-406.605322313533	3820.5701988059636	682.3180427170909	-414.03746998194936	3809.6074202408	678.2808673045021	-420.1285849366573	3797.4296867815783	680.6746425330072	-424.8465803952025	3819.687850424314	732.4894465221907	-396.6057738305231	3825.0473184963976	701.9122918619988	-400.3463648437057	3820.908177516353	687.9897244472069	-405.44085274945536	3812.943239318801	684.932683451106	-409.46922865240737	3802.1737942805585	686.9885436215521	-413.4100480797534	3648.883596889449	1250.3449586537035	-174.5545959074227	3584.5396727442744	1190.2200322490048	-79.43840812979346	3692.528260178919	1004.559423886255	-205.47830838539716	3837.0281778413478	829.5301526519094	-326.4655936097229	3822.2501862195872	822.9131019622763	-347.92873588427994	3816.9415709069362	804.5366017889859	-381.5060900469997	3813.590425216851	789.650598184727	-404.6772619455741	3811.092523453997	775.4540348811153	-423.81262290138596	3821.0172951217046	815.1532925855485	-348.21174100780524	3802.6665167179212	783.9858849963659	-384.67010475211896	3795.8602856686916	760.5102912471087	-414.9872378807555	3796.0448514111663	749.0549389060292	-433.89382584541823	3799.176346021305	741.6909833468305	-449.5822214638782	3822.8799505788224	810.4725291588803	-346.600981100425	3805.986958668456	777.5414607837196	-381.28870007099823	3798.8727518428277	751.4061670446841	-414.0461057005553	3799.2455154912323	737.3367843737661	-436.70043135721664	3802.74490486711	729.1582744903354	-453.7906492492538	3824.602244918118	807.959196358876	-344.488268468786	3810.7765802531953	776.2595948444309	-373.61164620117665	3804.9227766538747	753.0016760071176	-401.7771552768689	3805.466603179286	739.1766448016726	-423.4240814722191	3808.8442391242093	731.3664252925741	-439.3960573060022	3827.6069517411784	805.9789332339362	-341.3463892928132	3816.5647203243575	775.6675931938415	-365.98417840587655	3812.479270255156	756.4355648541768	-387.8092430016059	3813.167174668735	746.0574438933693	-403.2460425299001	3816.3268208343015	738.969611760588	-417.1917130301803
91	0.375	3921.0129	906.651	56.2195	3997.656110747373	890.9861789431257	1.8150602715417417	3917.137898727975	489.7760360743787	-86.89610975248623	3905.594043420207	106.3924565811746	-161.61626807318473	3830.678336595224	30.72740935225555	-2.875397751784737	3853.245671311727	893.8582478830097	122.2174576736656	3789.2899545924533	490.62103076135196	216.30143925335705	3746.9808997003834	59.16327246544191	296.526600225227	3614.0092656395336	-15.574164631913195	181.0975473424054	3878.924299546461	1033.6848027113585	5.713116334885796	3830.123338132691	1100.3239048316163	-44.94389496965463	3774.500167446752	1163.7560230835138	-100.25872197587306	3715.0012239588823	1214.980598461586	-157.30303835521332	3650.9716518999467	1269.9154486863836	-217.58285137718207	3591.387626345182	1319.7440977227986	-271.60914408713575	3473.11016845806	1413.8359411807821	-323.07976198165136	3694.706078570705	1253.2816068942618	-219.24538206436353	3755.0996668106754	1245.1265474180423	-331.1090233249873	3763.576942588351	975.3551132486799	-325.06121627586276	3811.1899474487345	759.9328391634617	-395.65515439452844	3814.6602320278776	746.7372532967113	-409.19211109523474	3803.294054162875	736.9120477148371	-421.7643885260484	3795.857786280932	728.3678392995224	-429.3697241883991	3790.0683784117605	719.788942287945	-434.72616489369926	3818.452640261608	738.2276673455422	-406.24482391789337	3823.7216256159018	703.9315977130678	-418.4530797341827	3818.0061963209855	686.4637173599162	-427.3058533781275	3808.503893500289	683.1638893637682	-432.99506028043606	3796.626041983928	685.5320438214613	-437.82909545904175	3819.1264753407554	735.0965249619815	-402.70905943809777	3824.632841563158	699.9497093667782	-412.70402470572975	3818.456272627014	680.5948645776482	-421.8584740847322	3807.0209172593823	676.4727274040737	-428.47962200700647	3794.0384040073122	678.9953705696469	-433.65096411450526	3819.567529866473	733.6766311670928	-399.89079209287434	3825.176156707851	700.702880962847	-406.3763226371025	3819.8442912014925	683.5890278369269	-413.82285319858033	3808.8413987584504	679.4832890284249	-419.92667828993575	3796.647550024866	681.7937970002339	-424.6550290656668	3819.1398200016574	733.6869609027584	-396.35754147582236	3824.3557311633135	703.1606767990978	-400.10250237078446	3820.141559498179	689.2201214736579	-405.20639327912085	3812.1427973585396	686.1110196149266	-409.2430169026234	3801.356449595064	688.0919385123739	-413.1924210916372	3649.104316038727	1250.6465593366713	-174.37085014773598	3584.9403233129256	1190.6974407185314	-79.3136472722131	3692.799897500023	1005.0332011608884	-205.15460954724813	3836.9434923081953	830.3708508680414	-325.7333896241262	3822.0393810697806	823.9811485380745	-347.1167413730117	3816.64591362079	805.8701853541891	-380.6533520300678	3813.2579962905324	791.1573205152872	-403.80843409937467	3810.7485334603116	777.0950170793683	-422.94089022527083	3820.876409746546	816.1959730103758	-347.43541202061834	3802.5161065532116	785.3108509287763	-383.8764425815832	3795.6953305195116	762.0530267567229	-414.18711365513474	3795.8490660571447	750.7324605453638	-433.08409715696195	3798.9403460158196	743.4796618714317	-448.7607740033998	3822.799725680648	811.4743550639326	-345.8589316143468	3805.93025695658	778.7965151286617	-380.5482848630412	3798.8082038316616	752.8925718802159	-413.30322536733377	3799.1476227173525	738.9827900860832	-435.9481642091465	3802.604882132695	730.9244411759241	-453.0266297042461	3824.5653439105567	808.9247176645188	-343.77090008810063	3810.7990258377795	777.4198500113831	-372.91722536677486	3804.946545877142	754.3567620604572	-401.0852710363929	3805.4625438512044	740.6820596462827	-422.72563075246154	3808.8026211478305	732.9831065084466	-438.6877353937279	3827.6184924122795	806.896303699662	-340.65781175485864	3816.6613069869604	776.7331818497559	-365.3344590699504	3812.5893915296338	757.6456873314687	-387.1687636180764	3813.2630318550387	747.3716639350059	-402.6042606797743	3816.3928802078985	740.3791999539004	-416.5431938056362
92	0.379	3921.0129	906.651	56.2195	3997.4625135384813	890.9148361097566	1.7836373385840245	3916.930646685155	489.670526615991	-86.73538620430467	3905.7222859379594	106.3798005615588	-161.62316837693595	3830.8098374786136	30.698551775027273	-2.8890151010518803	3853.426671568701	893.9249065121501	122.24614694687169	3789.5051497155723	490.6998886076003	216.39308142925742	3747.120946983326	59.2496148715535	296.53100251634726	3614.199578725525	-15.54476824057952	181.08925157362253	3878.985605371746	1033.7083495265604	5.727232272190822	3830.246282831029	1100.43883449499	-44.87558849148769	3774.6661830460034	1163.9563250127344	-100.13883958239202	3715.170995603132	1215.2330333699197	-157.1354208825068	3651.14593579367	1270.2229211160666	-217.3637766593469	3591.5699848440195	1320.1037763209738	-271.3430785503982	3473.303280170506	1414.2172016946724	-322.7847638249632	3694.8343116453534	1253.558032111134	-219.02799186248248	3755.120071899252	1245.5012260934407	-330.81775342122876	3763.6560379324005	976.00306311676	-324.84456804171566	3810.787549745575	761.0402885290819	-395.40524692007875	3814.3254131598565	747.9446871196811	-408.9682928007758	3802.9531444428712	738.0739056720298	-421.56819589486724	3795.4922109205436	729.4938439239365	-429.190531234148	3789.6647686134784	720.8815384322188	-434.55922888601594	3818.052259120579	739.4447977473883	-406.0148895047678	3823.242288636568	705.2349505538381	-418.2474674661213	3817.4641637636073	687.7455015801324	-427.11975704412663	3807.9413929286716	684.3841507951638	-432.82245501281125	3796.0590855063715	686.6689288510589	-437.6685728244495	3818.6729250502103	736.2955877199926	-402.472313094643	3824.073522583833	701.2231210259674	-412.4873161755123	3817.8217713302097	681.8419751115813	-421.66208686794397	3806.358473865057	677.6442855650009	-428.29904347071573	3793.3695058098956	680.0750547668507	-433.48337891090955	3819.078359494226	734.8615473453455	-399.6485762383978	3824.561069661298	701.9445428701827	-406.14721120926316	3819.156923683008	684.804812913628	-413.6104265901735	3808.123493385495	680.6246296293976	-419.7289550757555	3795.921876714359	682.848009438095	-424.4692641036456	3818.612438831036	734.8466259939496	-396.1086014436084	3823.6890411365375	704.3595964667538	-399.861322780177	3819.4070066562986	690.3934596156079	-404.9769151699345	3811.381140952237	687.227706459199	-409.02346055887307	3800.585132638815	689.1300908895727	-412.9829961824391	3649.3238583003476	1250.948031985895	-174.1859394674651	3585.344230854944	1191.1794976789674	-79.19171198397108	3693.096759343029	1005.5256313385308	-204.82845162209256	3836.899214870322	831.2275121101807	-324.9729703148113	3821.8751545536365	825.0755435581993	-346.2703378858267	3816.4006264046825	807.2334823829453	-379.75941262798506	3812.978086062169	792.6948866605635	-402.89532955410704	3810.4584327307675	778.7667476534549	-422.0237328327376	3820.781086390225	817.2620799486565	-346.63058093504844	3802.416531607577	786.6640986434768	-383.0576279011229	3795.5839187241386	763.6248924557128	-413.3612692982398	3795.707971336871	752.438862292256	-432.2450963996609	3798.759624398958	745.2964890155185	-447.9049566721383	3822.7634961170884	812.4960188937754	-345.09262680411894	3805.9218467682304	780.074202732439	-379.7891793500393	3798.7946774220914	754.4020433377572	-412.5415811963114	3799.1020276981008	740.6513244137905	-435.1731098874339	3802.5177477917778	732.7122212242494	-452.23437239335937	3824.571204413284	809.907436366689	-343.0322321804197	3810.867034344823	778.5975704388969	-372.2091779223494	3805.0180207151784	755.7291831769102	-400.38024481331126	3805.5072953208514	742.2040208490207	-422.0104485803657	3808.8103097091416	734.6153457085355	-437.95769518932093	3827.671159932881	807.8275400382057	-339.950922022097	3816.8006093532313	777.8108925572469	-364.6754451402702	3812.743562519465	758.867033907978	-386.5202000200488	3813.4035601790506	748.696148853857	-401.95217420318005	3816.5039435769604	741.7979565076586	-415.88018133787455
